<?xml version="1.0" encoding="UTF-8" standalone="no"?>
<svg
   xmlns:dc="http://purl.org/dc/elements/1.1/"
   xmlns:cc="http://creativecommons.org/ns#"
   xmlns:rdf="http://www.w3.org/1999/02/22-rdf-syntax-ns#"
   xmlns:svg="http://www.w3.org/2000/svg"
   xmlns="http://www.w3.org/2000/svg"
   xmlns:sodipodi="http://sodipodi.sourceforge.net/DTD/sodipodi-0.dtd"
   xmlns:inkscape="http://www.inkscape.org/namespaces/inkscape"
   version="1.1"
   viewBox="0 0 512 512"
   stroke-miterlimit="10"
   id="svg3028"
   inkscape:version="0.48.2 r9819"
   width="100%"
   height="100%"
   sodipodi:docname="CVH_Logo.svg"
   style="fill:none;stroke:none">
  <metadata
     id="metadata3069">
    <rdf:RDF>
      <cc:Work
         rdf:about="">
        <dc:format>image/svg+xml</dc:format>
        <dc:type
           rdf:resource="http://purl.org/dc/dcmitype/StillImage" />
      </cc:Work>
    </rdf:RDF>
  </metadata>
  <defs
     id="defs3067" />
  <sodipodi:namedview
     pagecolor="#ffffff"
     bordercolor="#666666"
     borderopacity="1"
     objecttolerance="10"
     gridtolerance="10"
     guidetolerance="10"
     inkscape:pageopacity="0"
     inkscape:pageshadow="2"
     inkscape:window-width="1920"
     inkscape:window-height="1018"
     id="namedview3065"
     showgrid="false"
     inkscape:zoom="1"
     inkscape:cx="189"
     inkscape:cy="291.5"
     inkscape:window-x="-8"
     inkscape:window-y="-8"
     inkscape:window-maximized="1"
     inkscape:current-layer="svg3028" />
  <clipPath
     id="p.0">
    <path
       d="M 0,0 690,0 690,583 0,583 0,0 z"
       clip-rule="nonzero"
       id="path3031"
       inkscape:connector-curvature="0" />
  </clipPath>
  <path
     style="fill:#666666;fill-rule:nonzero"
     inkscape:connector-curvature="0"
     id="path3035"
     d="m 90.3129,83.196658 0,0 c 0,-30.587581 24.72737,-55.38372 55.23013,-55.38372 l 220.9139,0 0,0 c 14.64794,0 28.69594,5.835055 39.0536,16.221519 10.35769,10.386461 16.17657,24.473531 16.17657,39.162201 l 0,345.606672 c 0,30.58757 -24.7274,55.38373 -55.23017,55.38373 l -220.9139,0 c -30.50276,0 -55.23013,-24.79616 -55.23013,-55.38373 z" />
  <path
     style="stroke:#000000;stroke-width:5;stroke-linecap:butt;stroke-linejoin:round;stroke-miterlimit:10;stroke-dasharray:none"
     inkscape:connector-curvature="0"
     id="path3037"
     d="m 90.3129,83.196658 0,0 c 0,-30.587581 24.72737,-55.38372 55.23013,-55.38372 l 220.9139,0 0,0 c 14.64794,0 28.69594,5.835055 39.0536,16.221519 10.35769,10.386461 16.17657,24.473531 16.17657,39.162201 l 0,345.606672 c 0,30.58757 -24.7274,55.38373 -55.23017,55.38373 l -220.9139,0 c -30.50276,0 -55.23013,-24.79616 -55.23013,-55.38373 z" />
  <path
     style="fill:#ffffff;fill-rule:nonzero"
     inkscape:connector-curvature="0"
     id="path3039"
     d="m 143.75528,255.99998 0,0 c 0,-62.16343 50.25366,-112.55684 112.2447,-112.55684 61.99103,0 112.24469,50.39341 112.24469,112.55684 0,62.16343 -50.25366,112.55684 -112.24469,112.55684 -61.99104,0 -112.2447,-50.39341 -112.2447,-112.55684 z" />
  <path
     style="fill:#cbcbcb;fill-rule:nonzero"
     inkscape:connector-curvature="0"
     id="path3041"
     d="m 208.34796,222.33716 c 0,-6.47536 5.23475,-11.72468 11.69215,-11.72468 6.45738,0 11.69214,5.24932 11.69214,11.72468 0,6.47535 -5.23476,11.72466 -11.69214,11.72466 -6.4574,0 -11.69215,-5.24931 -11.69215,-11.72466 m 71.91974,0 c 0,-6.47536 5.23475,-11.72468 11.69215,-11.72468 6.45741,0 11.69216,5.24932 11.69216,11.72468 0,6.47535 -5.23475,11.72466 -11.69216,11.72466 -6.4574,0 -11.69215,-5.24931 -11.69215,-11.72466" />
  <path
     style="stroke:#000000;stroke-width:3.62582779;stroke-linecap:butt;stroke-linejoin:round"
     inkscape:connector-curvature="0"
     id="path3043"
     d="m 208.34796,222.33716 c 0,-6.47536 5.23475,-11.72468 11.69215,-11.72468 6.45738,0 11.69214,5.24932 11.69214,11.72468 0,6.47535 -5.23476,11.72466 -11.69214,11.72466 -6.4574,0 -11.69215,-5.24931 -11.69215,-11.72466 m 71.91974,0 c 0,-6.47536 5.23475,-11.72468 11.69215,-11.72468 6.45741,0 11.69216,5.24932 11.69216,11.72468 0,6.47535 -5.23475,11.72466 -11.69216,11.72466 -6.4574,0 -11.69215,-5.24931 -11.69215,-11.72466" />
  <path
     style="stroke:#000000;stroke-width:3.62582779;stroke-linecap:butt;stroke-linejoin:round"
     inkscape:connector-curvature="0"
     id="path3045"
     d="m 195.16263,305.08679 q 60.83735,41.89814 121.53263,0" />
  <path
     style="stroke:#000000;stroke-width:4;stroke-linecap:butt;stroke-linejoin:round;stroke-miterlimit:10;stroke-dasharray:none"
     inkscape:connector-curvature="0"
     id="path3047"
     d="m 143.75528,255.99998 0,0 c 0,-62.16343 50.25366,-112.55684 112.2447,-112.55684 61.99103,0 112.24469,50.39341 112.24469,112.55684 0,62.16343 -50.25366,112.55684 -112.24469,112.55684 -61.99104,0 -112.2447,-50.39341 -112.2447,-112.55684 z" />
  <path
     style="fill:#000000;fill-rule:nonzero"
     inkscape:connector-curvature="0"
     id="path3049"
     d="m 190.98692,292.30172 0,0 c 0,-27.9396 29.17314,-50.5891 65.16008,-50.5891 l 0,0 c 35.98692,0 65.16008,22.6495 65.16008,50.5891 l 0,0 c 0,27.93959 -29.17317,50.58913 -65.16008,50.58913 l 0,0 c -35.98694,0 -65.16008,-22.64954 -65.16008,-50.58913 z" />
  <path
     style="stroke:#000000;stroke-width:1.81291389;stroke-linecap:butt;stroke-linejoin:round"
     inkscape:connector-curvature="0"
     id="path3051"
     d="m 190.98692,292.30172 0,0 c 0,-27.9396 29.17314,-50.5891 65.16008,-50.5891 l 0,0 c 35.98692,0 65.16008,22.6495 65.16008,50.5891 l 0,0 c 0,27.93959 -29.17317,50.58913 -65.16008,50.58913 l 0,0 c -35.98694,0 -65.16008,-22.64954 -65.16008,-50.58913 z" />
  <path
     style="fill:#ffffff;fill-rule:nonzero"
     inkscape:connector-curvature="0"
     id="path3053"
     d="m 169.10086,241.47651 181.03983,0 0,50.8893 -181.03983,0 z" />
  <path
     style="stroke:#ffffff;stroke-width:1.81291389;stroke-linecap:butt;stroke-linejoin:round"
     inkscape:connector-curvature="0"
     id="path3055"
     d="m 169.10086,241.47651 181.03983,0 0,50.8893 -181.03983,0 z" />
  <path
     style="fill:#ffffff;fill-rule:nonzero"
     inkscape:connector-curvature="0"
     id="path3057"
     d="m 205.13778,219.86287 0,0 c 0,-7.92635 6.52264,-14.35193 14.56871,-14.35193 l 0,0 c 3.86387,0 7.56946,1.51208 10.30164,4.20359 2.73217,2.6915 4.26707,6.34197 4.26707,10.14834 l 0,0 c 0,7.92635 -6.52263,14.35192 -14.56871,14.35192 l 0,0 c -8.04607,0 -14.56871,-6.42557 -14.56871,-14.35192 z" />
  <path
     style="stroke:#000000;stroke-width:3.62582779;stroke-linecap:butt;stroke-linejoin:round"
     inkscape:connector-curvature="0"
     id="path3059"
     d="m 205.13778,219.86287 0,0 c 0,-7.92635 6.52264,-14.35193 14.56871,-14.35193 l 0,0 c 3.86387,0 7.56946,1.51208 10.30164,4.20359 2.73217,2.6915 4.26707,6.34197 4.26707,10.14834 l 0,0 c 0,7.92635 -6.52263,14.35192 -14.56871,14.35192 l 0,0 c -8.04607,0 -14.56871,-6.42557 -14.56871,-14.35192 z" />
  <path
     style="fill:#ffffff;fill-rule:nonzero"
     inkscape:connector-curvature="0"
     id="path3061"
     d="m 277.55371,219.86287 0,0 c 0,-7.92635 6.52264,-14.35193 14.56871,-14.35193 l 0,0 c 3.86387,0 7.56947,1.51208 10.30165,4.20359 2.73217,2.6915 4.26706,6.34197 4.26706,10.14834 l 0,0 c 0,7.92635 -6.52263,14.35192 -14.56871,14.35192 l 0,0 c -8.04607,0 -14.56871,-6.42557 -14.56871,-14.35192 z" />
  <path
     style="stroke:#000000;stroke-width:3.62582779;stroke-linecap:butt;stroke-linejoin:round"
     inkscape:connector-curvature="0"
     id="path3063"
     d="m 277.55371,219.86287 0,0 c 0,-7.92635 6.52264,-14.35193 14.56871,-14.35193 l 0,0 c 3.86387,0 7.56947,1.51208 10.30165,4.20359 2.73217,2.6915 4.26706,6.34197 4.26706,10.14834 l 0,0 c 0,7.92635 -6.52263,14.35192 -14.56871,14.35192 l 0,0 c -8.04607,0 -14.56871,-6.42557 -14.56871,-14.35192 z" />
</svg>
